<svg xmlns="http://www.w3.org/2000/svg" viewBox="0 0 873.5 183.27"><g id="Layer_2" data-name="Layer 2"><g id="Layer_1-2" data-name="Layer 1"><path d="M49.29,90,67.81,32.47H68L86.12,90ZM85.06,0H51.65L0,144.72H31.2l10.24-29.86h53.4L104,144.72h32.07Z"/><path d="M218.47,144.72v-106h26.27V51.47a34.23,34.23,0,0,1,7.22-8.4,31.17,31.17,0,0,1,7.75-4.63,29.75,29.75,0,0,1,8.07-2,82.27,82.27,0,0,1,8.4-.43h3.66V64.61a46,46,0,0,0-7.75-.65q-25.62,0-25.62,25.63v55.13Z"/><path d="M441.61,115.75q-6.67,8.94-17.23,8.94-10.12,0-16.9-8.4t-6.79-22q0-34.44,23.48-34.45,24.1,0,24.12,32.73,0,14.22-6.68,23.15M473.8,68.59a52.11,52.11,0,0,0-8.5-17.34A38.51,38.51,0,0,0,451.62,40a41,41,0,0,0-18.41-4q-19.59,0-31.44,16.59V0H374.2V144.72h26.92l.22-12.92q9.69,15.72,29.5,15.72a44,44,0,0,0,18.42-3.88,40.19,40.19,0,0,0,14.53-11.2,54.36,54.36,0,0,0,9.48-17.87,77.05,77.05,0,0,0,3.44-23.91,78.9,78.9,0,0,0-2.91-22.07"/><path d="M614.38,124q-25.62,0-25.62-32.3,0-32.08,25.62-32.09T640,91.74q0,32.31-25.63,32.3M664.45,68.7A47.26,47.26,0,0,0,636.78,40a59.5,59.5,0,0,0-22.4-4,61,61,0,0,0-22.72,4,48.51,48.51,0,0,0-17.11,11.3,49.19,49.19,0,0,0-10.88,17.66,66.07,66.07,0,0,0-3.77,22.83,67.31,67.31,0,0,0,3.66,22.61,47.22,47.22,0,0,0,27.78,29.07,61,61,0,0,0,23,4.1,59.69,59.69,0,0,0,22.29-4,47.39,47.39,0,0,0,17-11.3,50.13,50.13,0,0,0,10.76-17.55,66.06,66.06,0,0,0,3.77-22.94,66.92,66.92,0,0,0-3.77-23"/><polygon points="792.94 59.36 790.68 62.81 777.26 83.48 748.05 38.76 779.53 38.76 792.94 59.36"/><polygon points="848.54 144.72 817.25 144.72 802.66 122.38 818.44 98.52 848.54 144.72"/><polygon points="873.5 0 813.44 90.83 797.65 114.71 752.32 183.27 721.42 183.27 781.92 91.74 782.29 91.18 797.71 67.42 797.96 67.05 841.93 0 873.5 0"/></g></g></svg>