<svg width="131" height="40" viewBox="0 0 131 40" fill="none" xmlns="http://www.w3.org/2000/svg">
<path d="M18.5582 2.53848C17.2658 1.11058 15.4025 0 12.564 0H4.31807C3.62033 0 3.04153 0.523561 2.97017 1.22164L0.464671 24.7978C0.385383 25.5434 0.93247 26.2098 1.67778 26.2891C1.72535 26.297 1.77292 26.297 1.8205 26.297H4.76208C5.45981 26.297 6.03862 25.7735 6.10998 25.0754L8.28247 4.64065L11.8346 4.68032C12.5878 4.68825 13.3252 4.92623 13.9436 5.36253C14.5383 5.7909 15.244 6.7111 15.3629 7.89308C15.4739 9.02746 15.0457 10.138 14.2132 10.9075C13.5155 11.5342 12.6116 11.8515 11.0655 11.8515H11.002C10.3043 11.8515 9.72551 12.3751 9.65415 13.0732L9.30528 16.4208L11.1765 16.4287C12.6195 16.4287 13.8485 16.3652 15.4977 15.691C16.4253 15.2705 17.2737 14.6835 17.9952 13.9696C18.6692 13.2794 19.2797 12.383 19.7872 11.1931C20.2946 10.0032 20.5404 8.62289 20.4849 7.26639C20.3977 5.06902 19.2639 3.30002 18.5582 2.53848Z" fill="#0A0937"/>
<path d="M74.5268 2.53848C73.2344 1.11058 71.3712 0 68.5327 0H60.2788C59.581 0 59.0022 0.523561 58.9309 1.22164L56.4412 24.7978C56.3619 25.5434 56.909 26.2098 57.6543 26.2891C57.7019 26.297 57.7495 26.297 57.7971 26.297H60.7386C61.4364 26.297 62.0152 25.7735 62.0945 25.0833L64.2511 4.64859L67.8032 4.68825C68.5564 4.69618 69.2938 4.93417 69.9123 5.37047C70.5069 5.79883 71.2126 6.71903 71.3315 7.90101C71.4425 9.03539 71.0144 10.146 70.1819 10.9155C69.4841 11.5421 68.5802 11.8594 67.0341 11.8594H66.9707C66.273 11.8594 65.6941 12.383 65.6228 13.0811L65.266 16.4287L67.1372 16.4366C68.5802 16.4366 69.8092 16.3732 71.4584 15.6989C72.3861 15.2785 73.2344 14.6914 73.956 13.9775C74.6299 13.2873 75.2404 12.3909 75.7479 11.201C76.2632 10.0191 76.5011 8.63082 76.4456 7.27432C76.3663 5.06902 75.2246 3.30002 74.5268 2.53848Z" fill="#0A0937"/>
<path d="M129.752 25.8136L126.684 25.9722L127.001 22.934C127.04 22.5215 126.739 22.1487 126.327 22.109C126.287 22.109 126.248 22.1011 126.208 22.109L124.844 22.1804C124.472 22.1963 124.17 22.4898 124.131 22.8626L123.798 26.1388L120.499 26.3133C120.127 26.3292 119.825 26.6227 119.786 26.9956C119.746 27.3684 119.698 27.8285 119.659 28.2172C119.619 28.6297 119.92 29.0025 120.333 29.0422C120.372 29.0422 120.412 29.0501 120.452 29.0422L123.52 28.8836L123.203 31.9218C123.163 32.3343 123.465 32.7071 123.877 32.7468C123.917 32.7468 123.956 32.7547 123.996 32.7468L125.36 32.6754C125.732 32.6595 126.034 32.366 126.073 31.9932L126.406 28.717L129.705 28.5424C130.077 28.5266 130.379 28.2331 130.418 27.8682C130.458 27.4874 130.505 27.0352 130.545 26.6465C130.593 26.234 130.291 25.8612 129.879 25.8136C129.839 25.8136 129.8 25.8136 129.752 25.8136Z" fill="#34AA53"/>
<path d="M63.5629 28.6447C63.1823 28.2718 63.1744 27.661 63.5549 27.2802C63.8404 26.9867 64.2765 26.9074 64.6491 27.0819C64.9425 27.2406 66.0684 27.9307 66.2507 28.0259C72.9189 31.6988 80.2292 34.0865 87.7854 35.0622C98.965 36.5139 109.756 35.324 119.889 30.842C120.016 30.7786 120.167 30.7706 120.301 30.8024C120.357 30.8182 120.404 30.842 120.452 30.8658C120.626 30.9769 120.737 31.1593 120.745 31.3656C120.745 31.5798 120.634 31.7781 120.452 31.8971C116.028 34.7767 110.668 36.9185 105.11 38.3067C99.5517 39.695 93.8112 39.9964 87.8805 39.2269C84.035 38.7272 80.1578 37.6404 76.2807 36.0142C71.119 33.8485 65.1248 30.1439 63.5629 28.6447Z" fill="#34AA53"/>
<path d="M110.391 26.1389C110.923 26.242 111.47 26.2975 112.009 26.2975C113.5 26.2975 114.927 25.9485 115.926 25.3297C117.607 24.2905 118.764 22.5929 119.121 20.6573C119.2 20.221 119.185 19.7451 119.161 19.404C119.105 18.1903 118.526 17.04 118.233 16.6037C117.781 15.9453 117.052 15.3662 115.918 14.7713C115.672 14.6443 115.418 14.5174 115.18 14.4063C114.602 14.1208 114.055 13.859 113.579 13.5179C112.659 12.8357 112.31 12.0662 112.508 11.1698C112.699 10.2893 113.531 9.7419 114.673 9.7419C114.832 9.7419 114.998 9.74983 115.157 9.77363C115.743 9.85295 116.473 10.0592 117.321 10.3844C117.464 10.44 117.623 10.4717 117.773 10.4717C118.233 10.4717 118.653 10.2258 118.875 9.82122L120.025 7.75871C118.606 6.87818 117.012 6.04524 115.006 5.86279C114.752 5.83899 114.499 5.83105 114.237 5.83105C113.246 5.83105 111.367 6.01351 109.908 7.20342C109.115 7.8539 107.767 9.26593 107.577 11.4871C107.482 12.5898 107.775 14.1446 108.203 14.8109C108.861 15.858 109.686 16.4292 111.287 17.3177C113.452 18.5234 113.753 19.0311 113.944 19.3643C113.952 19.3802 113.959 19.396 113.967 19.4119C114.332 20.0227 114.348 20.8081 114.007 21.3634C113.626 21.9742 112.968 22.2836 112.049 22.2836C111.613 22.2756 111.184 22.2201 110.756 22.117C110.162 21.9583 109.591 21.7441 109.044 21.4586C108.441 21.1571 107.704 21.3792 107.379 21.9742L106.205 24.0922C106.641 24.4095 108.592 25.774 110.391 26.1389Z" fill="#0A0937"/>
<path d="M38.1097 21.9257C37.3882 21.9654 37.0155 21.5132 37.0155 20.7438C37.0393 20.5375 38.0462 11.0658 38.4347 7.32155C38.514 6.57588 37.9749 5.90953 37.2296 5.8302C37.182 5.82227 37.1344 5.82227 37.0869 5.82227H34.8192C34.1612 5.82227 33.5982 6.29823 33.4872 6.94871C33.4872 6.94871 33.3286 8.17829 33.3286 8.21795C31.9411 6.92492 30.4901 6.36169 28.9044 6.36169C26.4861 6.36169 24.5277 7.49607 22.9816 9.65378C21.4355 11.8115 20.7061 14.7069 20.7061 18.2608C20.7061 20.8389 21.2373 22.7825 22.3552 24.1866C23.4494 25.5589 24.8766 26.2967 26.6843 26.2967C27.7151 26.2967 28.7855 26.027 29.6259 25.5272C30.4664 25.0195 31.1879 24.3373 31.735 23.5202C31.7429 23.544 31.7508 23.5678 31.7587 23.5995V23.6075C32.4327 25.3606 34.0105 26.2887 35.6042 26.2887C37.404 26.2887 39.0849 25.1226 39.3228 23.7027C39.3862 23.3457 39.5131 21.8781 39.5131 21.8781C39.5131 21.8781 38.3317 21.9178 38.1097 21.9257ZM28.8965 22.013C27.5406 22.013 25.717 20.8072 25.495 18.5384C25.3999 17.5865 25.3919 16.9202 25.495 16.119C25.7012 14.5403 26.3275 13.279 26.7636 12.6444C27.2473 11.9463 28.4921 10.8675 30.1968 10.8437C31.0689 10.8278 32.1472 11.1134 32.956 11.7718C32.7498 13.7391 32.4723 16.4204 32.1235 19.7601C31.5684 21.2277 30.2761 22.013 28.8965 22.013Z" fill="#0A0937"/>
<path d="M82.9393 21.9498C82.2178 21.9894 81.8452 21.5373 81.8452 20.7678C81.8689 20.5615 83.4785 5.25135 83.8749 1.5071C83.9542 0.761423 83.4151 0.0950727 82.6697 0.0157452C82.6222 0.0078125 82.5746 0.0078125 82.527 0.0078125H80.2515C79.5934 0.0078125 79.0304 0.483777 78.9194 1.13426C78.9194 1.13426 76.6835 21.7356 76.6914 22.2988C76.6676 22.751 76.7311 23.1952 76.8659 23.6236C77.413 25.2974 78.8639 26.3048 80.418 26.2969C82.2178 26.289 83.8908 25.1308 84.1366 23.7108C84.2 23.3539 84.3269 21.8863 84.3269 21.8863C84.3269 21.8863 83.1534 21.9339 82.9393 21.9498Z" fill="#0A0937"/>
<path d="M103.295 21.9582C102.573 21.9979 102.2 21.5457 102.2 20.7762C102.224 20.57 103.223 11.0824 103.612 7.33816C103.691 6.59248 103.152 5.92613 102.407 5.8468C102.359 5.83887 102.311 5.83887 102.264 5.83887H99.9962C99.3381 5.83887 98.7751 6.31483 98.6641 6.96532L97.3004 19.8243C97.0387 20.5858 96.5154 21.2284 95.8335 21.6488C95.0169 22.1248 93.8989 22.1962 92.8285 21.8551C92.107 21.625 91.2903 20.8952 91.2903 19.5784C91.3617 18.92 92.1863 11.0903 92.5748 7.34609C92.6541 6.60041 92.1149 5.93406 91.3696 5.85473C91.322 5.8468 91.2745 5.8468 91.2269 5.8468H88.9593C88.3012 5.8468 87.7382 6.32276 87.6272 6.97325C87.6272 6.97325 86.0415 21.744 86.0415 22.3072C86.0256 22.7039 86.0652 23.0926 86.1683 23.4813C86.9612 26.0674 89.1654 26.2974 89.768 26.3133C90.7195 26.345 92.2576 26.2736 94.1526 25.3455C95.8732 24.5046 96.9436 23.6241 97.0149 23.5368C97.0625 23.6082 97.1101 23.6796 97.1497 23.7589C98.0932 25.4486 99.2508 26.3133 100.789 26.3133C102.589 26.3133 104.262 25.1472 104.508 23.7272C104.571 23.3702 104.698 21.9027 104.698 21.9027C104.698 21.9027 103.509 21.9423 103.295 21.9582Z" fill="#0A0937"/>
<path d="M52.7476 5.83105C52.2163 5.83105 51.7248 6.14836 51.5107 6.63226C51.5107 6.63226 48.8942 12.2566 48.1885 14.216C48.022 14.684 47.6969 15.4852 47.4908 16.3102C47.467 16.3895 47.3877 16.4371 47.3084 16.4213C47.245 16.4054 47.2053 16.3578 47.1974 16.2943C47.1974 16.2943 46.9041 14.7475 46.801 14.216C46.4442 12.3676 45.6751 9.13108 45.1676 6.89404C45.0249 6.27529 44.4778 5.83899 43.8435 5.83899H41.5521C40.8068 5.83899 40.1963 6.44981 40.1963 7.19549C40.1963 7.29861 40.2042 7.3938 40.228 7.49693C41.2508 11.8996 43.9387 23.5211 43.9308 23.529L40.9337 30.2163C40.6244 30.8985 40.9337 31.6997 41.6155 32.0091C41.79 32.0884 41.9803 32.1281 42.1706 32.1281H45.5244C45.6672 31.7632 53.7625 13.74 56.4503 7.74285C56.7595 7.06063 56.4503 6.25942 55.7684 5.95005C55.594 5.87072 55.4037 5.83105 55.2134 5.83105H52.7476Z" fill="#0A0937"/>
</svg>
